<?xml version="1.0" standalone="no"?><svg xmlns="http://www.w3.org/2000/svg" viewBox="0 0 1440 320"><path fill="#3a3939" fill-opacity="0.8" d="M0,160L16,144C32,128,64,96,96,112C128,128,160,192,192,197.3C224,203,256,149,288,154.7C320,160,352,224,384,213.3C416,203,448,117,480,101.3C512,85,544,139,576,165.3C608,192,640,192,672,186.7C704,181,736,171,768,144C800,117,832,75,864,69.3C896,64,928,96,960,117.3C992,139,1024,149,1056,165.3C1088,181,1120,203,1152,202.7C1184,203,1216,181,1248,160C1280,139,1312,117,1344,117.3C1376,117,1408,139,1424,149.3L1440,160L1440,320L1424,320C1408,320,1376,320,1344,320C1312,320,1280,320,1248,320C1216,320,1184,320,1152,320C1120,320,1088,320,1056,320C1024,320,992,320,960,320C928,320,896,320,864,320C832,320,800,320,768,320C736,320,704,320,672,320C640,320,608,320,576,320C544,320,512,320,480,320C448,320,416,320,384,320C352,320,320,320,288,320C256,320,224,320,192,320C160,320,128,320,96,320C64,320,32,320,16,320L0,320Z"></path></svg>